# xmcd CD database file
#
# Track frame offsets:
#	150
#	17692
#	40352
#	69330
#	89110
#	113142
#	137562
#	160100
#	182025
#	203895
#	226797
#
# Disc length: 3360 seconds
#
# Revision: 0
# Processed by: cddbd v1.4PL0 Copyright (c) Steve Scherf et al.
# Submitted via: CDex 1.50beta9
#
DISCID=8e0d1e0b
DTITLE=Allen Ron - Temptation
DYEAR=1997
DGENRE=Jazz
TTITLE0=In a sentimental mood
TTITLE1=Lady in red
TTITLE2=sophisticated lady
TTITLE3=temptation
TTITLE4=somewhere out there
TTITLE5=misty
TTITLE6=laura
TTITLE7=the shadow of your smile
TTITLE8=you are the sunshine of my life
TTITLE9=what's new
TTITLE10=body and soul
EXTD=YEAR: 1997
EXTT0=
EXTT1=
EXTT2=
EXTT3=
EXTT4=
EXTT5=
EXTT6=
EXTT7=
EXTT8=
EXTT9=
EXTT10=
PLAYORDER=
